<svg id="SvgjsSvg1039" width="288" height="288" xmlns="http://www.w3.org/2000/svg" version="1.1" xmlns:xlink="http://www.w3.org/1999/xlink" xmlns:svgjs="http://svgjs.com/svgjs"><defs id="SvgjsDefs1040"></defs><g id="SvgjsG1041"><svg xmlns="http://www.w3.org/2000/svg" enable-background="new -252 358.9 89.3 125" viewBox="-252 358.9 89.3 156.25" width="288" height="288"><path d="M-193.8,415.6C-193.9,415.6-193.9,415.6-193.8,415.6c0-0.1,0-0.1-0.1-0.1c-0.2-0.5-0.5-1-1-1.5c-4.8-4.8-9.7-9.7-14.5-14.5  c-4.1-4.1-10.4,2.2-6.3,6.3c3.8,3.8,7.7,7.7,11.5,11.5c-3.8,3.8-7.5,7.5-11.3,11.3c-4.1,4.1,2.2,10.4,6.3,6.3  c4.8-4.8,9.7-9.7,14.5-14.5C-193.2,418.9-193.2,417.1-193.8,415.6z" fill="#f8f8ff" class="color000 svgShape"></path></svg></g></svg>