<svg id="SvgjsSvg1001" width="288" height="288" xmlns="http://www.w3.org/2000/svg" version="1.1" xmlns:xlink="http://www.w3.org/1999/xlink" xmlns:svgjs="http://svgjs.com/svgjs"><defs id="SvgjsDefs1002"></defs><g id="SvgjsG1008" transform="matrix(1,0,0,1,0,0)"><svg xmlns="http://www.w3.org/2000/svg" viewBox="0 0 32 40" width="288" height="288"><g data-name="Layer 2" fill="#f8f8ff" class="color000 svgShape"><path d="M20.67 13.2A4.67 4.67 0 1016 17.86 4.67 4.67 0 0020.67 13.2zm-7.47 0A2.8 2.8 0 1116 16 2.8 2.8 0 0113.2 13.2zM8.82 23.34A.93.93 0 0010.09 23a4.68 4.68 0 014-2.33h3.73a4.69 4.69 0 014 2.33.93.93 0 101.62-.94 6.56 6.56 0 00-5.66-3.26H14.13a6.56 6.56 0 00-5.66 3.27A.93.93 0 008.82 23.34zM29.07 15.07a3.73 3.73 0 10-3.73 3.73A3.74 3.74 0 0029.07 15.07zm-5.6 0a1.87 1.87 0 111.87 1.87A1.87 1.87 0 0123.47 15.07zM25 21.6h1.66a2.93 2.93 0 011.85.65.93.93 0 001.17-1.46 4.84 4.84 0 00-3-1.06H25a.93.93 0 100 1.87zM10.4 15.07A3.73 3.73 0 106.67 18.8 3.74 3.74 0 0010.4 15.07zM6.67 16.93a1.87 1.87 0 111.87-1.87A1.87 1.87 0 016.67 16.93zM5.37 19.73a4.84 4.84 0 00-3 1.06.93.93 0 101.17 1.46 2.93 2.93 0 011.85-.65H7a.93.93 0 100-1.87z" fill="#f8f8ff" class="color000 svgShape"></path></g></svg></g></svg>