<svg id="SvgjsSvg1014" width="288" height="288" xmlns="http://www.w3.org/2000/svg" version="1.1" xmlns:xlink="http://www.w3.org/1999/xlink" xmlns:svgjs="http://svgjs.com/svgjs"><defs id="SvgjsDefs1015"></defs><g id="SvgjsG1016"><svg xmlns="http://www.w3.org/2000/svg" enable-background="new 0 0 100 100" viewBox="0 0 100 125" width="288" height="288"><path d="M65.2,83.1l-10.5-9.6c-1.1-1-1.2-2.7-0.2-3.8l0,0c1-1.1,2.7-1.2,3.8-0.2l8,7.3l15.4-21.9  c0.9-1.2,2.5-1.5,3.7-0.7v0c1.2,0.9,1.5,2.5,0.7,3.7L68.7,82.7C67.9,83.8,66.2,84,65.2,83.1z M32.2,84c-6.2,0-13.3-5.1-13.3-11.6  c0-6.7,2.2-13.8,6.1-19.5c0.8-1.2,0.6-2.7-0.6-3.6l0,0c-1.2-0.9-3-0.7-3.9,0.6c-4.5,6.6-7,14.7-7,22.5c0,9.7,9.9,16.9,18.7,16.9  h20.5c1.5,0,2.7-1.2,2.7-2.7l0,0c0-1.5-1.2-2.7-2.7-2.7H32.2z M31.1,31.6c0-11,9-20,20-20c11,0,20,9,20,20c0,11-9,20-20,20  C40.1,51.6,31.1,42.6,31.1,31.6z M36.5,31.6c0,8.1,6.6,14.6,14.6,14.6c8.1,0,14.6-6.6,14.6-14.6c0-8.1-6.6-14.6-14.6-14.6  C43,17,36.5,23.5,36.5,31.6z" fill="#f8f8ff" class="color000 svgShape"></path></svg></g></svg>