<svg id="SvgjsSvg1031" width="288" height="288" xmlns="http://www.w3.org/2000/svg" version="1.1" xmlns:xlink="http://www.w3.org/1999/xlink" xmlns:svgjs="http://svgjs.com/svgjs"><defs id="SvgjsDefs1032"></defs><g id="SvgjsG1033"><svg xmlns="http://www.w3.org/2000/svg" data-name="Layer 1" viewBox="0 0 100 125" width="288" height="288"><path d="M28.55 39H13.45A4.45 4.45 0 009 43.45v33.1A4.45 4.45 0 0013.45 81h15.1A4.45 4.45 0 0033 76.55V43.45A4.45 4.45 0 0028.55 39zM29 76.55a.45.45 0 01-.45.45H13.45a.45.45 0 01-.45-.45V43.45a.45.45 0 01.45-.45h15.1a.45.45 0 01.45.45zM90.35 49.35l-1-3.79A8.94 8.94 0 0080.72 39H65.24l.55-1.11a2.09 2.09 0 00.2-.74c.86-11.18-.8-18-5.09-20.76-4.09-2.66-8.66-.25-8.85-.15A2 2 0 0051 18v9.43L41.89 42H38a2 2 0 000 4h5a2 2 0 001.7-.94l10-16A2.07 2.07 0 0055 28V19.37a4.56 4.56 0 013.71.37c1.63 1.06 4.2 4.63 3.33 16.72l-1.83 3.65a2 2 0 00.09 1.94A2 2 0 0062 43H80.72a4.92 4.92 0 014.74 3.62l1 3.78a4.82 4.82 0 01-.13 3l-8.58 23.4A4.9 4.9 0 0173.18 80H49c-.3 0-7.28.74-8.84-5.5a2 2 0 00-3.88 1c1.71 6.84 7.89 8.57 11.84 8.57a11.2 11.2 0 001.2-.06H73.18a8.94 8.94 0 008.36-5.84l8.58-23.4A8.86 8.86 0 0090.35 49.35z" fill="#f8f8ff" class="color000 svgShape"></path><circle cx="21" cy="69" r="4" fill="#f8f8ff" class="color000 svgShape"></circle></svg></g></svg>