<?xml version="1.0" encoding="utf-8"?>
<svg viewBox="0 0 300 300" xmlns="http://www.w3.org/2000/svg">
    <g transform="matrix(1.244008, 0, 0, 1.227079, -35.54802, -33.813214)" style="">
        <path d="M 211.34 126.653 L 210.833 94.727 C 176.089 70.693 128.062 70.402 87.689 94.727 C 87.689 94.727 87.858 127.329 88.196 192.532 C 128.399 210.776 148.501 219.898 148.501 219.898 C 189.718 200.979 210.616 194.427 210.616 194.427 C 210.954 168.657 210.37 151.296 210.37 151.296 C 222.995 150.814 229.771 151.152 229.771 151.152 C 229.064 186.916 229.001 205.924 229.001 205.924 C 176.096 229.599 148.99 241.126 148.266 240.793 C 95.446 216.545 68.572 205.293 68.572 205.293 C 68.418 125.214 68.805 84.132 68.805 84.132 C 122.089 51.58 176.144 49.381 229.581 83.437 L 229.581 125.832"
              style="opacity: 0.7;"/>
        <path d="M 121.543 151.016 L 121.543 167.233 C 140.385 176.268 158.996 176.071 177.375 166.641 C 177.066 164.479 177.607 163.861 177.607 163.861 C 128.648 143.628 103.241 133.049 103.241 133.049 C 103.318 115.21 103.241 105.249 103.241 105.249 C 133.28 88.183 168.185 90.267 195.676 104.786 L 195.213 126.099 L 177.838 126.33 C 178.301 119.843 177.143 116.6 177.143 116.6 C 170.347 109.958 131.504 108.569 121.774 116.832 C 119.773 118.531 121.774 120.77 121.774 120.77 C 170.579 141.466 194.982 151.814 194.982 151.814 C 195.136 168.494 195.213 176.834 195.213 176.834 C 164.092 196.295 133.435 196.604 103.241 177.761 L 103.241 151.582"
              style="opacity: 0.7;"/>
    </g>
</svg>