<svg id="SvgjsSvg1001" width="288" height="288" xmlns="http://www.w3.org/2000/svg" version="1.1" xmlns:xlink="http://www.w3.org/1999/xlink" xmlns:svgjs="http://svgjs.com/svgjs"><defs id="SvgjsDefs1002"></defs><g id="SvgjsG1008" transform="matrix(1,0,0,1,0,0)"><svg xmlns="http://www.w3.org/2000/svg" data-name="Layer 1" viewBox="0 0 48 60" width="288" height="288"><path fill-rule="evenodd" d="M28.45213,9.70581,7.07256,31.08438a1.00525,1.00525,0,0,0-.27909.54423L5.1518,41.679a.9973.9973,0,0,0,1.13931,1.14528l10.09918-1.59183a1.00379,1.00379,0,0,0,.55022-.28008L38.31907,19.57276ZM29.86155,8.2954l9.86794,9.86794,1.67158-1.67256a4.98248,4.98248,0,0,0,0-7.04812L38.58222,6.62382a4.98245,4.98245,0,0,0-7.04812,0Z" fill="#ffffff" class="color000 svgShape"></path></svg></g></svg>