<svg id="SvgjsSvg1021" width="288" height="288" xmlns="http://www.w3.org/2000/svg" version="1.1" xmlns:xlink="http://www.w3.org/1999/xlink" xmlns:svgjs="http://svgjs.com/svgjs"><defs id="SvgjsDefs1022"></defs><g id="SvgjsG1023"><svg xmlns="http://www.w3.org/2000/svg" enable-background="new 0 0 90 90" viewBox="0 0 90 112.5" width="288" height="288"><polygon points="38.182 57.753 20.18 47.91 20.18 42.455 38.182 32.652 38.182 39.074 25.625 45.113 38.182 51.379" fill="#f8f8ff" class="color000 svgShape"></polygon><polygon points="39.848 62.08 46.351 27.918 50.136 27.918 43.56 62.08" fill="#f8f8ff" class="color000 svgShape"></polygon><polygon points="51.8 57.78 51.8 51.4 64.372 45.181 51.8 39.028 51.8 32.696 69.82 42.5 69.82 47.91" fill="#f8f8ff" class="color000 svgShape"></polygon><path d="M44.999,86.031L9.465,65.517V24.484L44.999,3.969l35.536,20.516v41.029L44.999,86.031L44.999,86.031z M13.07,63.434  l31.929,18.434L76.93,63.434V26.566L44.999,8.131L13.07,26.565V63.434L13.07,63.434z" fill="#f8f8ff" class="color000 svgShape"></path></svg></g></svg>